<?xml version="1.0" encoding="UTF-8" standalone="no"?>
<!-- Created with Inkscape (http://www.inkscape.org/) -->

<svg
   width="210mm"
   height="2500mm"
   viewBox="0 0 210 2500"
   version="1.1"
   id="svg1"
   inkscape:version="1.4.3 (0d15f75, 2025-12-25)"
   sodipodi:docname="ibg.svg"
   xmlns:inkscape="http://www.inkscape.org/namespaces/inkscape"
   xmlns:sodipodi="http://sodipodi.sourceforge.net/DTD/sodipodi-0.dtd"
   xmlns:xlink="http://www.w3.org/1999/xlink"
   xmlns="http://www.w3.org/2000/svg"
   xmlns:svg="http://www.w3.org/2000/svg">
  <sodipodi:namedview
     id="namedview1"
     pagecolor="#ffffff"
     bordercolor="#000000"
     borderopacity="0.25"
     inkscape:showpageshadow="2"
     inkscape:pageopacity="0.0"
     inkscape:pagecheckerboard="0"
     inkscape:deskcolor="#d1d1d1"
     inkscape:document-units="mm"
     inkscape:zoom="0.45254834"
     inkscape:cx="-414.32038"
     inkscape:cy="630.87183"
     inkscape:window-width="1920"
     inkscape:window-height="1057"
     inkscape:window-x="-8"
     inkscape:window-y="-8"
     inkscape:window-maximized="1"
     inkscape:current-layer="layer1" />
  <defs
     id="defs1">
    <pattern
       inkscape:collect="always"
       xlink:href="#pattern6"
       preserveAspectRatio="xMidYMid"
       id="pattern12"
       patternTransform="translate(251.53429,222.73541)" />
    <clipPath
       clipPathUnits="userSpaceOnUse"
       id="clipPath11">
      <rect
         style="fill:none;stroke:#000000;stroke-width:0.999999;stroke-linecap:butt;stroke-linejoin:bevel;paint-order:stroke markers fill;stop-color:#000000"
         id="rect11"
         width="44.999748"
         height="77.937294"
         x="251.53429"
         y="222.73541" />
    </clipPath>
    <pattern
       patternUnits="userSpaceOnUse"
       width="44.999748"
       height="77.937294"
       patternTransform="translate(251.53429,222.73541)"
       preserveAspectRatio="xMidYMid"
       id="pattern6"
       inkscape:label="Hexagonal grid"
       inkscape:collect="always"
       inkscape:isstock="true">
      <path
         id="path5"
         style="fill:none;stroke:#000000;stroke-linecap:butt;stroke-linejoin:bevel;paint-order:stroke markers fill;stop-color:#000000"
         d="m 251.51664,326.68327 5e-4,-26.00078 -22.51716,13.00073 0.0171,25.97039 z m -45.01664,-0.0304 22.5171,13.0008 -4.3e-4,-26.0008 -22.49953,-12.97038 z m 22.53472,-38.97038 -22.51758,13 22.51758,13 22.48242,-13 z m 67.49906,39.00078 5e-4,-26.00078 -22.51716,13.00073 0.0171,25.97039 z m -45.01664,-0.0304 22.5171,13.0008 -4.3e-4,-26.0008 -22.49953,-12.97038 z m 22.53472,-38.97038 -22.51758,13 22.51758,13 22.48242,-13 z m -0.0267,77.97196 5e-4,-26.00078 -22.51716,13.00073 0.0171,25.97039 z m -45.01664,-0.0304 22.5171,13.0008 -4.3e-4,-26.0008 -22.49953,-12.97038 z m 22.53472,-38.97038 -22.51758,13 22.51758,13 22.48242,-13 z m 67.49906,39.00078 5e-4,-26.00078 -22.51716,13.00073 0.0171,25.97039 z m -45.01664,-0.0304 22.5171,13.0008 -4.3e-4,-26.0008 -22.49953,-12.97038 z m 22.53472,-38.97038 -22.51758,13 22.51758,13 22.48242,-13 z m -45.04374,-77.91748 5e-4,-26.00078 -22.51716,13.00073 0.0171,25.97039 z m -45.01664,-0.0304 22.5171,13.0008 -4.3e-4,-26.0008 -22.49953,-12.97038 z m 22.53472,-38.97038 -22.51758,13 22.51758,13 22.48242,-13 z m 67.49906,39.00078 5e-4,-26.00078 -22.51716,13.00073 0.0171,25.97039 z m -45.01664,-0.0304 22.5171,13.0008 -4.3e-4,-26.0008 -22.49953,-12.97038 z m 22.53472,-38.97038 -22.51758,13 22.51758,13 22.48242,-13 z m -0.0267,77.97196 5e-4,-26.00078 -22.51716,13.00073 0.0171,25.97039 z m -45.01664,-0.0304 22.5171,13.0008 -4.3e-4,-26.0008 -22.49953,-12.97038 z m 22.53472,-38.97038 -22.51758,13 22.51758,13 22.48242,-13 z m 67.49906,39.00078 5e-4,-26.00078 -22.51716,13.00073 0.0171,25.97039 z m -45.01664,-0.0304 22.5171,13.0008 -4.3e-4,-26.0008 -22.49953,-12.97038 z m 22.53472,-38.97038 -22.51758,13 22.51758,13 22.48242,-13 z"
         clip-path="url(#clipPath24)"
         transform="translate(-251.53429,-222.73541)" />
    </pattern>
    <clipPath
       clipPathUnits="userSpaceOnUse"
       id="clipPath10">
      <rect
         style="fill:none;stroke:#000000;stroke-linecap:butt;stroke-linejoin:bevel;paint-order:stroke markers fill;stop-color:#000000"
         id="rect10"
         width="45.034248"
         height="38.955639"
         x="262.48285"
         y="121.00073" />
    </clipPath>
    <clipPath
       clipPathUnits="userSpaceOnUse"
       id="clipPath24">
      <rect
         style="fill:none;stroke:#000000;stroke-width:0.999999;stroke-linecap:butt;stroke-linejoin:bevel;paint-order:stroke markers fill;stop-color:#000000"
         id="rect24"
         width="44.999748"
         height="77.937294"
         x="251.53429"
         y="222.73541" />
    </clipPath>
    <clipPath
       clipPathUnits="userSpaceOnUse"
       id="clipPath8">
      <rect
         style="fill:none;stroke:#000000;stroke-linecap:butt;stroke-linejoin:bevel;paint-order:stroke markers fill;stop-color:#000000"
         id="rect8"
         width="45.034248"
         height="38.955639"
         x="262.48285"
         y="121.00073" />
    </clipPath>
    <clipPath
       clipPathUnits="userSpaceOnUse"
       id="clipPath15">
      <rect
         style="fill:none;stroke:#000000;stroke-linecap:butt;stroke-linejoin:bevel;paint-order:stroke markers fill;stop-color:#000000"
         id="rect15-7"
         width="45.034248"
         height="38.955639"
         x="262.48285"
         y="121.00073" />
    </clipPath>
  </defs>
  <g
     inkscape:label="Layer 1"
     inkscape:groupmode="layer"
     id="layer1">
    <rect
       style="fill:url(#pattern12);fill-rule:evenodd;stroke-width:1.13241"
       id="rect1"
       width="210.5224"
       height="2501.1016"
       x="-0.073844843"
       y="0.12362228" />
  </g>
</svg>
